<svg width="100%" height="100%" viewBox="0 0 1046 279" version="1.1" xmlns="http://www.w3.org/2000/svg" xmlns:xlink="http://www.w3.org/1999/xlink" xml:space="preserve" xmlns:serif="http://www.serif.com/" style="fill-rule:evenodd;clip-rule:evenodd;stroke-linejoin:round;stroke-miterlimit:2;">
    <g transform="matrix(1,0,0,1,-7635.61,-3998.15)">
        <g transform="matrix(1,0,0,1,3166.83,2850.89)">
            <g id="Kookajoo" transform="matrix(0.400381,0,0,0.400381,4341.7,919.933)">
                <g transform="matrix(2.49762,0,0,2.49762,-4887.35,-19349.9)">
                    <path d="M2981.05,8189.81C2978.09,8194.17 2974.65,8198.32 2970.7,8202.27C2955.01,8218 2935.74,8225.9 2912.85,8225.9C2889.87,8225.9 2870.88,8217.98 2855.84,8202.29L2855.83,8202.28C2840.88,8186.61 2833.37,8167.66 2833.37,8145.4C2833.37,8123.13 2840.88,8104.2 2855.85,8088.6C2870.88,8072.91 2889.87,8065 2912.85,8065C2935.74,8065 2955.01,8072.88 2970.7,8088.57C2974.65,8092.52 2978.1,8096.67 2981.06,8101.03C2983.88,8096.67 2987.18,8092.53 2990.95,8088.6C3005.99,8072.91 3024.97,8065 3047.95,8065C3070.84,8065 3090.11,8072.88 3105.8,8088.57C3121.51,8104.28 3129.37,8123.23 3129.37,8145.4C3129.37,8167.57 3121.51,8186.53 3105.8,8202.27C3090.12,8218 3070.84,8225.9 3047.95,8225.9C3024.97,8225.9 3005.99,8217.98 2990.94,8202.29L2990.93,8202.28C2987.17,8198.34 2983.87,8194.18 2981.05,8189.81ZM3015.69,8110.47C3007.1,8120 3002.89,8131.66 3002.89,8145.4C3002.89,8159.14 3007.12,8170.8 3015.74,8180.33C3024.12,8189.6 3034.86,8194.18 3047.9,8194.18C3061.09,8194.18 3072.21,8189.48 3081.25,8180.05C3090.4,8170.52 3094.95,8158.96 3094.95,8145.4C3094.95,8131.84 3090.4,8120.28 3081.25,8110.74C3072.21,8101.32 3061.09,8096.62 3047.9,8096.62C3034.86,8096.62 3024.1,8101.2 3015.69,8110.47ZM2880.59,8110.47C2872,8120 2867.78,8131.66 2867.78,8145.4C2867.78,8159.14 2872.02,8170.8 2880.63,8180.33C2889.02,8189.6 2899.76,8194.18 2912.8,8194.18C2925.99,8194.18 2937.11,8189.48 2946.15,8180.05C2955.3,8170.52 2959.85,8158.96 2959.85,8145.4C2959.85,8131.84 2955.3,8120.28 2946.15,8110.74C2937.11,8101.32 2925.99,8096.62 2912.8,8096.62C2899.75,8096.62 2889,8101.2 2880.59,8110.47Z" style="fill:rgb(241,89,34);"/>
                </g>
                <g transform="matrix(2.05301,0,0,2.05301,-203.667,-3342.86)">
                    <path d="M1154.29,2181.17C1154.29,2188.47 1153.62,2195.07 1152.31,2200.97C1150.97,2207.02 1149.13,2212.47 1146.82,2217.32C1144.48,2222.23 1141.78,2226.63 1138.74,2230.51C1135.87,2234.17 1132.89,2237.54 1129.81,2240.62L1126.84,2243.59L1077.65,2243.59L1092.72,2226.7C1096.96,2221.96 1100.58,2217.18 1103.57,2212.36C1106.36,2207.88 1108.47,2203.02 1109.93,2197.8C1111.43,2192.41 1112.14,2186.19 1112.14,2179.13L1112.14,2068.51L1154.29,2068.51L1154.29,2181.17ZM1112.14,2054.98L1112.14,2013.95L1154.29,2013.95L1154.29,2054.98L1112.14,2054.98Z" style="fill:rgb(241,89,34);"/>
                </g>
                <g transform="matrix(493.492,0,0,493.492,1675.91,1164.47)">
                    <path d="M0.476,-0.137L0.214,-0.137C0.211,-0.13 0.151,0.042 0.151,0.042L-0.031,0.042L0.258,-0.755L0.436,-0.755L0.721,0.042L0.537,0.042C0.537,0.042 0.478,-0.13 0.476,-0.137ZM0.423,-0.292L0.346,-0.515L0.268,-0.292L0.423,-0.292Z" style="fill:rgb(241,89,34);"/>
                </g>
                <g transform="matrix(-493.492,0,0,493.492,1654.71,1166.93)">
                    <path d="M0.218,0.042C0.218,0.042 0.218,-0.205 0.218,-0.205L0.265,-0.259L0.495,0.042L0.707,0.042C0.707,0.042 0.379,-0.39 0.379,-0.39L0.69,-0.742L0.477,-0.742L0.218,-0.446L0.218,-0.742L0.044,-0.742L0.044,0.042L0.218,0.042Z" style="fill:rgb(241,89,34);"/>
                </g>
                <g transform="matrix(2.49762,0,0,2.49762,-4887.35,-19349.9)">
                    <path d="M2345.26,8189.81C2342.3,8194.17 2338.86,8198.32 2334.91,8202.27C2319.22,8218 2299.95,8225.9 2277.06,8225.9C2254.07,8225.9 2235.09,8217.98 2220.05,8202.29L2220.04,8202.28C2205.09,8186.61 2197.58,8167.66 2197.58,8145.4C2197.58,8123.13 2205.09,8104.2 2220.06,8088.6C2235.09,8072.91 2254.07,8065 2277.06,8065C2299.95,8065 2319.22,8072.88 2334.91,8088.57C2338.86,8092.52 2342.31,8096.67 2345.26,8101.03C2348.09,8096.67 2351.39,8092.53 2355.16,8088.6C2370.19,8072.91 2389.18,8065 2412.16,8065C2435.05,8065 2454.32,8072.88 2470.01,8088.57C2485.72,8104.28 2493.58,8123.23 2493.58,8145.4C2493.58,8167.57 2485.72,8186.53 2470.01,8202.27C2454.32,8218 2435.05,8225.9 2412.16,8225.9C2389.18,8225.9 2370.19,8217.98 2355.15,8202.29L2355.14,8202.28C2351.38,8198.34 2348.08,8194.18 2345.26,8189.81ZM2379.9,8110.47C2371.31,8120 2367.09,8131.66 2367.09,8145.4C2367.09,8159.14 2371.33,8170.8 2379.95,8180.33C2388.33,8189.6 2399.07,8194.18 2412.11,8194.18C2425.3,8194.18 2436.42,8189.48 2445.46,8180.05C2454.61,8170.52 2459.16,8158.96 2459.16,8145.4C2459.16,8131.84 2454.61,8120.28 2445.46,8110.74C2436.42,8101.32 2425.3,8096.62 2412.11,8096.62C2399.07,8096.62 2388.31,8101.2 2379.9,8110.47ZM2244.8,8110.47C2236.21,8120 2231.99,8131.66 2231.99,8145.4C2231.99,8159.14 2236.23,8170.8 2244.84,8180.33C2253.23,8189.6 2263.97,8194.18 2277.01,8194.18C2290.2,8194.18 2301.32,8189.48 2310.36,8180.05C2319.51,8170.52 2324.06,8158.96 2324.06,8145.4C2324.06,8131.84 2319.51,8120.28 2310.36,8110.74C2301.32,8101.32 2290.2,8096.62 2277.01,8096.62C2263.96,8096.62 2253.21,8101.2 2244.8,8110.47Z" style="fill:rgb(241,89,34);"/>
                </g>
                <g>
                    <g transform="matrix(2.49762,0,0,2.49762,-4887.35,-16093.1)">
                        <path d="M2214.91,6918.94L2173.07,6918.94L2133.37,6868.69L2157.97,6843.76L2214.91,6918.94Z" style="fill:rgb(241,89,34);"/>
                    </g>
                    <g transform="matrix(2.49762,0,0,2.49762,-4887.35,-16093.1)">
                        <path d="M2207.74,6763.92L2083.88,6908.88L2083.88,6763.92L2118.3,6763.92L2118.3,6822.43L2169.47,6763.92L2207.74,6763.92Z" style="fill:rgb(241,89,34);"/>
                    </g>
                </g>
            </g>
        </g>
        <g transform="matrix(1,0,0,1,3166.83,2850.89)">
            <g id="Studio" transform="matrix(1,0,0,1,2323.49,-746.607)">
                <g transform="matrix(0.938513,0,0,0.938513,-4904.47,275.913)">
                    <path d="M7757,1725C7771.9,1725 7784,1737.1 7784,1752C7784,1766.9 7771.9,1779 7757,1779C7742.1,1779 7730,1766.9 7730,1752C7730,1737.1 7742.1,1725 7757,1725ZM7757,1736.52C7765.54,1736.52 7772.48,1743.46 7772.48,1752C7772.48,1760.54 7765.54,1767.48 7757,1767.48C7748.46,1767.48 7741.52,1760.54 7741.52,1752C7741.52,1743.46 7748.46,1736.52 7757,1736.52Z" style="fill:rgb(0,149,218);"/>
                </g>
                <g transform="matrix(66.6667,0,0,66.6667,2328.17,1943.53)">
                    <rect x="0.056" y="-0.73" width="0.15" height="0.76" style="fill:rgb(0,149,218);fill-rule:nonzero;"/>
                </g>
                <g transform="matrix(66.6667,0,0,66.6667,2277.45,1943.53)">
                    <path d="M0.056,0.03L0.056,-0.73L0.301,-0.73C0.406,-0.73 0.522,-0.681 0.587,-0.613C0.653,-0.545 0.686,-0.447 0.686,-0.35C0.686,-0.253 0.653,-0.14 0.587,-0.072C0.522,-0.004 0.406,0.03 0.301,0.03L0.056,0.03ZM0.206,-0.102C0.206,-0.102 0.354,-0.101 0.39,-0.115C0.536,-0.173 0.536,-0.325 0.536,-0.35C0.536,-0.375 0.536,-0.527 0.39,-0.585C0.355,-0.599 0.206,-0.598 0.206,-0.598L0.206,-0.102Z" style="fill:rgb(0,149,218);fill-rule:nonzero;"/>
                </g>
                <g transform="matrix(66.6667,2.44076e-15,-9.99201e-16,66.6667,2225.01,1943.53)">
                    <path d="M0.055,-0.275L0.056,-0.73L0.206,-0.73L0.206,-0.27C0.206,-0.211 0.251,-0.098 0.376,-0.098C0.502,-0.098 0.546,-0.211 0.546,-0.27L0.546,-0.73L0.696,-0.73L0.696,-0.275C0.696,-0.231 0.685,0.03 0.376,0.03C0.068,0.03 0.055,-0.232 0.055,-0.275Z" style="fill:rgb(0,149,218);fill-rule:nonzero;"/>
                </g>
                <g transform="matrix(66.6667,0,0,66.6667,2186.69,1943.53)">
                    <path d="M-0.02,-0.604L-0.02,-0.73L0.55,-0.73L0.55,-0.604L0.34,-0.604L0.34,0.03L0.19,0.03L0.19,-0.604L-0.02,-0.604Z" style="fill:rgb(0,149,218);fill-rule:nonzero;"/>
                </g>
                <g transform="matrix(66.6667,0,0,66.6667,2148.43,1943.53)">
                    <path d="M0.024,-0.54C0.024,-0.715 0.216,-0.745 0.274,-0.745C0.379,-0.745 0.483,-0.682 0.502,-0.668L0.438,-0.534C0.423,-0.545 0.349,-0.609 0.274,-0.609C0.195,-0.609 0.174,-0.571 0.174,-0.54C0.174,-0.452 0.514,-0.411 0.514,-0.182C0.514,0.009 0.314,0.045 0.254,0.045C0.129,0.045 0.025,-0.044 0.009,-0.061L0.074,-0.19C0.092,-0.173 0.193,-0.091 0.254,-0.091C0.293,-0.091 0.364,-0.117 0.364,-0.182C0.364,-0.303 0.024,-0.341 0.024,-0.54Z" style="fill:rgb(0,149,218);fill-rule:nonzero;"/>
                </g>
            </g>
        </g>
    </g>
</svg>
